<svg xmlns="http://www.w3.org/2000/svg" width="301" height="301"><g><defs><linearGradient id="idVKQzodJbTg-1728017759" x1="0.49751243781094523" x2="0.5024875621890548" y1="0" y2="1"><stop offset="0" stop-color="#f72485" stop-opacity="1"></stop><stop offset="1" stop-color="hsl(333, 100%, 50%)" stop-opacity="1"></stop></linearGradient></defs><path d="M 150.5 0.5 C 233.343 0.5 300.5 67.657 300.5 150.5 C 300.5 150.607 300.5 150.713 300.5 150.82 L 0.5 150.82 C 0.5 150.713 0.5 150.607 0.5 150.5 C 0.5 67.657 67.657 0.5 150.5 0.5 Z M 150.5 300.5 C 125.241 300.5 101.441 294.257 80.557 283.229 L 220.443 283.229 C 199.559 294.257 175.759 300.5 150.5 300.5 Z M 300.403 155.937 C 300.288 159.162 300.072 162.362 299.756 165.532 L 1.244 165.532 C 0.928 162.362 0.712 159.162 0.597 155.937 Z M 299.158 170.649 C 298.666 174.318 298.041 177.944 297.288 181.523 L 3.712 181.523 C 2.959 177.944 2.334 174.318 1.842 170.649 Z M 294.755 191.758 C 293.703 195.443 292.513 199.069 291.193 202.632 L 9.807 202.632 C 8.487 199.069 7.297 195.443 6.245 191.758 Z M 286.96 212.867 C 285.16 216.799 283.195 220.64 281.074 224.381 L 19.926 224.381 C 17.805 220.64 15.84 216.799 14.04 212.867 Z M 266.069 246.129 C 261.55 251.585 256.651 256.716 251.414 261.481 L 49.586 261.481 C 44.349 256.716 39.45 251.585 34.931 246.129 Z" fill="url(#idVKQzodJbTg-1728017759)"></path></g></svg>